<svg width="16" height="11" viewBox="0 0 16 11" fill="none" xmlns="http://www.w3.org/2000/svg">
<path d="M10.039 5.5C10.039 5.99314 9.83162 6.46608 9.46241 6.81478C9.0932 7.16348 8.59244 7.35938 8.07029 7.35938C7.54815 7.35938 7.04739 7.16348 6.67817 6.81478C6.30896 6.46608 6.10154 5.99314 6.10154 5.5C6.10154 5.00686 6.30896 4.53392 6.67817 4.18522C7.04739 3.83652 7.54815 3.64062 8.07029 3.64062C8.59244 3.64062 9.0932 3.83652 9.46241 4.18522C9.83162 4.53392 10.039 5.00686 10.039 5.5ZM0.437867 5.07168C2.10427 1.75635 4.62322 0.0878906 7.99998 0.0878906C11.3785 0.0878906 13.8957 1.75635 15.5621 5.07334C15.6289 5.20701 15.6636 5.353 15.6636 5.50083C15.6636 5.64866 15.6289 5.79465 15.5621 5.92832C13.8957 9.24365 11.3767 10.9121 7.99998 10.9121C4.62146 10.9121 2.10427 9.24365 0.437867 5.92666C0.302516 5.65771 0.302516 5.34561 0.437867 5.07168ZM8.07029 8.42188C9.77889 8.42188 11.164 7.11367 11.164 5.5C11.164 3.88633 9.77889 2.57812 8.07029 2.57812C6.3617 2.57812 4.97654 3.88633 4.97654 5.5C4.97654 7.11367 6.3617 8.42188 8.07029 8.42188Z" fill="black"/>
</svg>