<svg xmlns="http://www.w3.org/2000/svg" x="0px" y="0px"
width="32" height="26"
viewBox="0 0 172 172"
style=" fill:#000000;"><g fill="none" fill-rule="nonzero" stroke="none" stroke-width="1" stroke-linecap="butt" stroke-linejoin="miter" stroke-miterlimit="10" stroke-dasharray="" stroke-dashoffset="0" font-family="none" font-weight="none" font-size="none" text-anchor="none" style="mix-blend-mode: normal"><path d="M0,172v-172h172v172z" fill="none"></path><g fill="#ffffff"><path d="M8.6,77.4h154.8v17.2h-154.8z"></path><path d="M160.53333,80.26667v11.46667h-149.06667v-11.46667h149.06667M166.26667,74.53333h-160.53333v22.93333h160.53333v-22.93333z"></path><path d="M8.6,31.53333h154.8v17.2h-154.8z"></path><path d="M160.53333,34.4v11.46667h-149.06667v-11.46667h149.06667M166.26667,28.66667h-160.53333v22.93333h160.53333v-22.93333z"></path><g><path d="M8.6,123.26667h154.8v17.2h-154.8z"></path><path d="M160.53333,126.13333v11.46667h-149.06667v-11.46667h149.06667M166.26667,120.4h-160.53333v22.93333h160.53333v-22.93333z"></path></g></g></g></svg>